<svg width="134" height="120" viewBox="0 0 134 120" fill="none" xmlns="http://www.w3.org/2000/svg">
<ellipse cx="7.5" cy="55.5" rx="7.5" ry="11.5" fill="white"/>
<path d="M14.5 55.5C14.5 58.5929 13.6815 61.3699 12.3845 63.3586C11.0845 65.3519 9.34669 66.5 7.5 66.5C5.65331 66.5 3.91546 65.3519 2.6155 63.3586C1.31853 61.3699 0.5 58.5929 0.5 55.5C0.5 52.4071 1.31853 49.6301 2.6155 47.6414C3.91546 45.6481 5.65331 44.5 7.5 44.5C9.34669 44.5 11.0845 45.6481 12.3845 47.6414C13.6815 49.6301 14.5 52.4071 14.5 55.5Z" stroke="black" stroke-opacity="0.5"/>
<ellipse cx="126.5" cy="55.5" rx="7.5" ry="11.5" fill="white"/>
<path d="M133.5 55.5C133.5 58.5929 132.681 61.3699 131.384 63.3586C130.085 65.3519 128.347 66.5 126.5 66.5C124.653 66.5 122.915 65.3519 121.616 63.3586C120.319 61.3699 119.5 58.5929 119.5 55.5C119.5 52.4071 120.319 49.6301 121.616 47.6414C122.915 45.6481 124.653 44.5 126.5 44.5C128.347 44.5 130.085 45.6481 131.384 47.6414C132.681 49.6301 133.5 52.4071 133.5 55.5Z" stroke="black" stroke-opacity="0.5"/>
<ellipse cx="66.5" cy="60" rx="59.5" ry="60" fill="white"/>
<path d="M125.5 60C125.5 92.8649 99.0809 119.5 66.5 119.5C33.9191 119.5 7.5 92.8649 7.5 60C7.5 27.1351 33.9191 0.5 66.5 0.5C99.0809 0.5 125.5 27.1351 125.5 60Z" stroke="black" stroke-opacity="0.5"/>
<ellipse cx="38" cy="44" rx="7" ry="8" fill="black" fill-opacity="0.5"/>
<ellipse cx="38" cy="44" rx="7" ry="8" fill="black" fill-opacity="0.5"/>
<ellipse cx="38" cy="44" rx="7" ry="8" fill="black" fill-opacity="0.5"/>
<path d="M44.5 44C44.5 48.2069 41.5292 51.5 38 51.5C34.4708 51.5 31.5 48.2069 31.5 44C31.5 39.7931 34.4708 36.5 38 36.5C41.5292 36.5 44.5 39.7931 44.5 44Z" stroke="black" stroke-opacity="0.5"/>
<ellipse cx="97" cy="44" rx="7" ry="8" fill="black" fill-opacity="0.5"/>
<ellipse cx="97" cy="44" rx="7" ry="8" fill="black" fill-opacity="0.5"/>
<ellipse cx="97" cy="44" rx="7" ry="8" fill="black" fill-opacity="0.5"/>
<path d="M103.5 44C103.5 48.2069 100.529 51.5 97 51.5C93.4708 51.5 90.5 48.2069 90.5 44C90.5 39.7931 93.4708 36.5 97 36.5C100.529 36.5 103.5 39.7931 103.5 44Z" stroke="black" stroke-opacity="0.5"/>
<line x1="31" y1="62.5" x2="104" y2="62.5" stroke="black" stroke-opacity="0.5"/>
</svg>
